<svg xmlns="http://www.w3.org/2000/svg" width="512" height="512" viewBox="0 0 512 512" role="img" aria-labelledby="title desc">
  <title id="title">CmisPortable app icon</title>
  <desc id="desc">A rounded blue app icon with a portable document stack, connected CMIS nodes, and sync arrows.</desc>
  <defs>
    <linearGradient id="backgroundGradient" x1="88" y1="40" x2="424" y2="472" gradientUnits="userSpaceOnUse">
      <stop offset="0" stop-color="#38bdf8"/>
      <stop offset="0.46" stop-color="#2563eb"/>
      <stop offset="1" stop-color="#172554"/>
    </linearGradient>
    <linearGradient id="documentGradient" x1="164" y1="124" x2="344" y2="388" gradientUnits="userSpaceOnUse">
      <stop offset="0" stop-color="#ffffff"/>
      <stop offset="1" stop-color="#dbeafe"/>
    </linearGradient>
    <linearGradient id="folderGradient" x1="118" y1="228" x2="394" y2="382" gradientUnits="userSpaceOnUse">
      <stop offset="0" stop-color="#bae6fd"/>
      <stop offset="1" stop-color="#60a5fa"/>
    </linearGradient>
    <filter id="softShadow" x="-20%" y="-20%" width="140%" height="150%" color-interpolation-filters="sRGB">
      <feDropShadow dx="0" dy="22" stdDeviation="18" flood-color="#020617" flood-opacity="0.32"/>
    </filter>
  </defs>

  <rect width="512" height="512" rx="116" fill="url(#backgroundGradient)"/>
  <path d="M98 122c50-56 128-78 205-57 76 21 128 77 150 150" fill="none" stroke="#7dd3fc" stroke-width="22" stroke-linecap="round" opacity="0.52"/>
  <path d="M420 344c-54 72-154 101-241 62-50-22-88-61-109-108" fill="none" stroke="#bfdbfe" stroke-width="22" stroke-linecap="round" opacity="0.42"/>

  <g filter="url(#softShadow)">
    <path d="M154 142c0-18 14-32 32-32h126l64 64v176c0 18-14 32-32 32H186c-18 0-32-14-32-32V142Z" fill="url(#documentGradient)"/>
    <path d="M312 110v50c0 18 14 32 32 32h32l-64-82Z" fill="#bfdbfe"/>
    <path d="M196 222h96M196 260h120M196 298h82" stroke="#1d4ed8" stroke-width="18" stroke-linecap="round" opacity="0.72"/>
    <path d="M112 268c0-18 14-32 32-32h78l30 30h116c18 0 32 14 32 32v76c0 18-14 32-32 32H144c-18 0-32-14-32-32V268Z" fill="url(#folderGradient)"/>
    <path d="M112 306h288v70c0 18-14 32-32 32H144c-18 0-32-14-32-32v-70Z" fill="#1d4ed8" opacity="0.24"/>
  </g>

  <g fill="none" stroke="#ffffff" stroke-linecap="round" stroke-linejoin="round" stroke-width="22">
    <path d="M345 169a74 74 0 0 1 46 68"/>
    <path d="m391 237 24-22 21 25"/>
    <path d="M167 343a74 74 0 0 1-46-68"/>
    <path d="m121 275-24 22-21-25"/>
  </g>

  <g>
    <circle cx="388" cy="296" r="42" fill="#0f172a" opacity="0.22"/>
    <circle cx="388" cy="296" r="32" fill="#22c55e"/>
    <path d="m372 297 11 11 24-26" fill="none" stroke="#ffffff" stroke-width="12" stroke-linecap="round" stroke-linejoin="round"/>
    <circle cx="116" cy="190" r="34" fill="#0f172a" opacity="0.22"/>
    <circle cx="116" cy="190" r="25" fill="#93c5fd"/>
    <circle cx="116" cy="190" r="8" fill="#ffffff"/>
  </g>
</svg>
