<svg xmlns="http://www.w3.org/2000/svg" viewBox="0 0 256 256" role="img" aria-labelledby="logoTitle logoDescription">
  <title id="logoTitle">CmisPortable sync logo</title>
  <desc id="logoDescription">A refreshed CmisPortable mark with a portable folder, CMIS nodes, and sync arrows.</desc>
  <defs>
    <linearGradient id="backgroundGradient" x1="34" x2="222" y1="24" y2="232" gradientUnits="userSpaceOnUse">
      <stop offset="0" stop-color="#0ea5e9"/>
      <stop offset="0.48" stop-color="#2563eb"/>
      <stop offset="1" stop-color="#111827"/>
    </linearGradient>
    <linearGradient id="folderGradient" x1="56" x2="202" y1="84" y2="188" gradientUnits="userSpaceOnUse">
      <stop offset="0" stop-color="#e0f2fe"/>
      <stop offset="0.5" stop-color="#93c5fd"/>
      <stop offset="1" stop-color="#1d4ed8"/>
    </linearGradient>
    <linearGradient id="arrowGradient" x1="50" x2="206" y1="54" y2="208" gradientUnits="userSpaceOnUse">
      <stop offset="0" stop-color="#f8fafc"/>
      <stop offset="1" stop-color="#bae6fd"/>
    </linearGradient>
    <filter id="softShadow" x="-24%" y="-24%" width="148%" height="148%">
      <feDropShadow dx="0" dy="14" stdDeviation="13" flood-color="#020617" flood-opacity="0.36"/>
    </filter>
  </defs>
  <rect width="256" height="256" rx="58" fill="#020617"/>
  <circle cx="128" cy="128" r="104" fill="url(#backgroundGradient)"/>
  <g filter="url(#softShadow)">
    <path d="M54 104c0-11 9-20 20-20h38l16 18h54c11 0 20 9 20 20v58c0 12-9 21-21 21H75c-12 0-21-9-21-21z" fill="url(#folderGradient)"/>
    <path d="M54 123h148v57c0 12-9 21-21 21H75c-12 0-21-9-21-21z" fill="#1e40af" opacity="0.33"/>
    <path d="M78 143h100" stroke="#eff6ff" stroke-linecap="round" stroke-width="12" opacity="0.92"/>
    <path d="M78 169h68" stroke="#dbeafe" stroke-linecap="round" stroke-width="12" opacity="0.86"/>
    <path d="M183 70a68 68 0 0 0-105-9" fill="none" stroke="url(#arrowGradient)" stroke-linecap="round" stroke-width="14"/>
    <path d="m73 62 8-29 22 20" fill="none" stroke="#f8fafc" stroke-linecap="round" stroke-linejoin="round" stroke-width="14"/>
    <path d="M73 186a68 68 0 0 0 105 9" fill="none" stroke="url(#arrowGradient)" stroke-linecap="round" stroke-width="14"/>
    <path d="m183 194-8 29-22-20" fill="none" stroke="#f8fafc" stroke-linecap="round" stroke-linejoin="round" stroke-width="14"/>
    <circle cx="86" cy="73" r="11" fill="#f8fafc"/>
    <circle cx="128" cy="58" r="11" fill="#bfdbfe"/>
    <circle cx="170" cy="73" r="11" fill="#f8fafc"/>
    <path d="M97 70 117 61m22 0 20 9" stroke="#dbeafe" stroke-linecap="round" stroke-width="7"/>
  </g>
</svg>
