<svg width="512" height="512" viewBox="0 0 512 512" fill="none" xmlns="http://www.w3.org/2000/svg">
  <defs>
    <linearGradient id="blueGrad" x1="96" y1="140" x2="220" y2="310" gradientUnits="userSpaceOnUse">
      <stop stop-color="#0A63D8"/>
      <stop offset="1" stop-color="#1EA7FF"/>
    </linearGradient>
    <linearGradient id="goldGrad" x1="292" y1="165" x2="420" y2="310" gradientUnits="userSpaceOnUse">
      <stop stop-color="#F7B500"/>
      <stop offset="1" stop-color="#FFD84D"/>
    </linearGradient>
    <linearGradient id="syncGrad" x1="122" y1="112" x2="395" y2="392" gradientUnits="userSpaceOnUse">
      <stop stop-color="#0A63D8"/>
      <stop offset="1" stop-color="#1EA7FF"/>
    </linearGradient>
    <filter id="shadow" x="60" y="80" width="400" height="340" filterUnits="userSpaceOnUse" color-interpolation-filters="sRGB">
      <feDropShadow dx="0" dy="8" stdDeviation="10" flood-color="#0B2B5C" flood-opacity="0.18"/>
    </filter>
  </defs>

  <!-- Background badge -->
  <rect width="512" height="512" rx="112" fill="#F7FAFF"/>
  <circle cx="256" cy="256" r="218" stroke="#0A63D8" stroke-width="14"/>

  <!-- Sync arrows -->
  <path d="M151 177C179 124 234 91 293 97C343 102 386 132 409 177" stroke="url(#syncGrad)" stroke-width="24" stroke-linecap="round"/>
  <path d="M415 175L424 227L375 207L415 175Z" fill="#0A63D8"/>

  <path d="M361 335C333 388 278 421 219 415C169 410 126 380 103 335" stroke="url(#syncGrad)" stroke-width="24" stroke-linecap="round"/>
  <path d="M97 337L88 285L137 305L97 337Z" fill="#0A63D8"/>

  <!-- Folders -->
  <g filter="url(#shadow)">
    <!-- Left blue folder -->
    <path d="M82 203C82 193.6 89.6 186 99 186H151C157 186 162.6 189.1 165.8 194.2L174 207H223C232.4 207 240 214.6 240 224V308C240 317.4 232.4 325 223 325H99C89.6 325 82 317.4 82 308V203Z" fill="url(#blueGrad)"/>
    <rect x="82" y="224" width="158" height="101" rx="18" fill="#0B75E8"/>
    <path d="M121 255C121 249.5 125.5 245 131 245H160C164 245 167.7 247 170 250.3L177 260H202C207.5 260 212 264.5 212 270V296C212 301.5 207.5 306 202 306H131C125.5 306 121 301.5 121 296V255Z" stroke="white" stroke-width="10" stroke-linejoin="round"/>

    <!-- Right yellow folder -->
    <path d="M272 203C272 193.6 279.6 186 289 186H341C347 186 352.6 189.1 355.8 194.2L364 207H413C422.4 207 430 214.6 430 224V308C430 317.4 422.4 325 413 325H289C279.6 325 272 317.4 272 308V203Z" fill="#E7A700"/>
    <rect x="272" y="224" width="158" height="101" rx="18" fill="url(#goldGrad)"/>
    <path d="M324 288H388C400 288 409 279 409 267C409 256.6 401.6 248 391.8 246.1C388.7 232.2 376.3 222 361.5 222C347.9 222 336.3 230.6 331.9 242.6C319.7 245.3 311 256 311 268.6C311 279.3 316.9 288 324 288Z" stroke="white" stroke-width="10" stroke-linejoin="round"/>
  </g>

  <!-- CMIS connector -->
  <line x1="246" y1="263" x2="266" y2="263" stroke="#0B3A78" stroke-width="8" stroke-linecap="round" stroke-dasharray="1 15"/>
  <text x="256" y="273" text-anchor="middle" font-family="Arial, Helvetica, sans-serif" font-size="44" font-weight="800" fill="#0B3A78">CMIS</text>
</svg>
