<svg xmlns="http://www.w3.org/2000/svg" viewBox="0 0 256 256" role="img" aria-labelledby="logoTitle logoDescription">
  <title id="logoTitle">CmisPortable 2 squared cube logo</title>
  <desc id="logoDescription">An original isometric cube mark with a centered 2 squared monogram.</desc>
  <defs>
    <linearGradient id="shellGradient" x1="38" x2="218" y1="32" y2="224" gradientUnits="userSpaceOnUse">
      <stop offset="0" stop-color="#60a5fa"/>
      <stop offset="0.52" stop-color="#2563eb"/>
      <stop offset="1" stop-color="#172554"/>
    </linearGradient>
    <linearGradient id="topGradient" x1="75" x2="181" y1="37" y2="112" gradientUnits="userSpaceOnUse">
      <stop offset="0" stop-color="#dbeafe"/>
      <stop offset="1" stop-color="#60a5fa"/>
    </linearGradient>
    <linearGradient id="rightGradient" x1="136" x2="221" y1="92" y2="179" gradientUnits="userSpaceOnUse">
      <stop offset="0" stop-color="#3b82f6"/>
      <stop offset="1" stop-color="#1e3a8a"/>
    </linearGradient>
    <linearGradient id="leftGradient" x1="35" x2="128" y1="92" y2="218" gradientUnits="userSpaceOnUse">
      <stop offset="0" stop-color="#1d4ed8"/>
      <stop offset="1" stop-color="#0f172a"/>
    </linearGradient>
    <filter id="softShadow" x="-20%" y="-20%" width="140%" height="140%">
      <feDropShadow dx="0" dy="16" stdDeviation="12" flood-color="#020617" flood-opacity="0.32"/>
    </filter>
  </defs>
  <rect width="256" height="256" rx="54" fill="#020617"/>
  <g filter="url(#softShadow)">
    <path d="M128 24 220 77v106l-92 53-92-53V77z" fill="url(#shellGradient)"/>
    <path d="M128 24 220 77l-92 53-92-53z" fill="url(#topGradient)"/>
    <path d="m128 130 92-53v106l-92 53z" fill="url(#rightGradient)"/>
    <path d="M36 77 128 130v106l-92-53z" fill="url(#leftGradient)"/>
    <path d="M128 56 184 88v64l-56 32-56-32V88z" fill="none" stroke="#eff6ff" stroke-linejoin="round" stroke-width="15"/>
    <path d="M128 56v48l40 23v49" fill="none" stroke="#eff6ff" stroke-linecap="round" stroke-linejoin="round" stroke-width="15"/>
    <path d="M128 104 88 127" fill="none" stroke="#eff6ff" stroke-linecap="round" stroke-width="15"/>
  </g>
  <g fill="#ffffff" font-family="Inter, ui-sans-serif, system-ui, -apple-system, BlinkMacSystemFont, 'Segoe UI', sans-serif" font-weight="900" text-anchor="middle">
    <text x="124" y="148" font-size="72">2</text>
    <text x="166" y="104" font-size="34">2</text>
  </g>
</svg>
